<svg xmlns="http://www.w3.org/2000/svg" width="12" height="10.502" viewBox="0 0 12 10.502">
  <path id="leaf-solid" d="M6.375,33.426A4.125,4.125,0,0,0,2.445,36.3a5.778,5.778,0,0,1,2.618-.621H7.125a.375.375,0,0,1,0,.75H5.063a5.156,5.156,0,0,0-1.132.127,5.033,5.033,0,0,0-1.673.72h0A5.061,5.061,0,0,0,0,41.489v.375a.563.563,0,0,0,1.125,0v-.375A3.925,3.925,0,0,1,2.386,38.6a4.126,4.126,0,0,0,3.989,3.075H6.4c3.1-.016,5.6-3.068,5.6-6.83a8.032,8.032,0,0,0-.495-2.8.212.212,0,0,0-.38,0,2.62,2.62,0,0,1-2.313,1.385Z" transform="translate(0 -31.925)" fill="#f96e97"/>
</svg>
